<svg width="18" height="18" viewBox="0 0 18 18" fill="none" xmlns="http://www.w3.org/2000/svg">
<path d="M11.6078 9.66743L12.744 16.0619C12.7567 16.1372 12.7462 16.2146 12.7137 16.2837C12.6813 16.3529 12.6285 16.4105 12.5625 16.4488C12.4964 16.4871 12.4202 16.5044 12.3441 16.4982C12.268 16.4921 12.1956 16.4628 12.1365 16.4144L9.4515 14.3992C9.32188 14.3023 9.16442 14.25 9.00263 14.25C8.84083 14.25 8.68337 14.3023 8.55375 14.3992L5.86425 16.4137C5.80524 16.462 5.73289 16.4912 5.65687 16.4973C5.58084 16.5035 5.50475 16.4863 5.43874 16.4481C5.37274 16.4099 5.31995 16.3524 5.28744 16.2834C5.25492 16.2144 5.24421 16.1372 5.25675 16.0619L6.39225 9.66743M13.5 6C13.5 8.48529 11.4853 10.5 9 10.5C6.51472 10.5 4.5 8.48529 4.5 6C4.5 3.51472 6.51472 1.5 9 1.5C11.4853 1.5 13.5 3.51472 13.5 6Z" stroke="#C0C0C0" stroke-width="1.5" stroke-linecap="round" stroke-linejoin="round"/>
</svg>
