<svg width="18" height="18" viewBox="0 0 18 18" fill="none" xmlns="http://www.w3.org/2000/svg">
<g clip-path="url(#clip0_2651_2223)">
<path d="M5.25008 9.00001H15.0001C15.199 9.00001 15.3898 9.07902 15.5304 9.21968C15.6711 9.36033 15.7501 9.55109 15.7501 9.75001C15.7501 10.7446 15.355 11.6984 14.6517 12.4017C13.9485 13.1049 12.9946 13.5 12.0001 13.5H11.5516C11.4846 13.5 11.4189 13.5179 11.3612 13.5519C11.3036 13.5859 11.256 13.6347 11.2236 13.6932C11.1911 13.7518 11.175 13.8179 11.1767 13.8849C11.1785 13.9518 11.1981 14.017 11.2336 14.0738L12.3916 15.9263C12.4271 15.983 12.4467 16.0483 12.4485 16.1152C12.4502 16.1821 12.434 16.2483 12.4016 16.3068C12.3691 16.3653 12.3216 16.4141 12.2639 16.4481C12.2062 16.4821 12.1405 16.5 12.0736 16.5H4.05158C3.98464 16.5 3.91892 16.4821 3.86124 16.4481C3.80357 16.4141 3.75604 16.3653 3.72359 16.3068C3.69113 16.2483 3.67495 16.1821 3.67671 16.1152C3.67846 16.0483 3.6981 15.983 3.73358 15.9263L5.25008 13.5M6 13.5C5.00544 13.5 4.05161 13.1049 3.34835 12.4017C2.64509 11.6984 2.25 10.7446 2.25 9.75001V3C2.25 2.60218 2.40804 2.22064 2.68934 1.93934C2.97064 1.65804 3.35218 1.5 3.75 1.5H9.75001C10.1478 1.5 10.5294 1.65804 10.8107 1.93934C11.092 2.22064 11.25 2.60218 11.25 3V9.00001" stroke="#E4241A" stroke-width="1.5" stroke-linecap="round" stroke-linejoin="round"/>
</g>
<defs>
<clipPath id="clip0_2651_2223">
<rect width="18" height="18" fill="white"/>
</clipPath>
</defs>
</svg>
